# xmcd
#
# Track frame offsets:
#	150
#	12515
#	33735
#	47820
#	76580
#	99354
#	118375
#	135440
#	151500
#	166915
#
# Disc length: 2432 seconds
#
# Revision: 1
# Processed by: cddbd v1.5.1PL0 Copyright (c) Steve Scherf et al.
# Submitted via: audiograbber 1.81.01
#
DISCID=70097e0a
DTITLE=COLLEEN ECCLESTONE - IN ESSENCE
DYEAR=1997
DGENRE=
TTITLE0=LAST ROSE OF SUMMER
TTITLE1=RAIN FALL
TTITLE2=LIGHT OF FIRE
TTITLE3=DESERT SONG
TTITLE4=WORLD WITHOUT REASON
TTITLE5=GYPSY LIFE
TTITLE6=BROKEN HEART
TTITLE7=ALL THE TRAPPINGS
TTITLE8=NO BALANCE
TTITLE9=NEVER COMPLAINING
EXTD=
EXTT0=
EXTT1=
EXTT2=
EXTT3=
EXTT4=
EXTT5=
EXTT6=
EXTT7=
EXTT8=
EXTT9=
PLAYORDER=
